<svg width="297" height="18" viewBox="0 0 297 18" fill="none" xmlns="http://www.w3.org/2000/svg">
<path d="M43.2539 8.14588C43.6182 7.93768 44.2168 7.62539 44.6592 7.39116C44.9975 7.20898 45.2057 6.87066 45.2318 6.48028C45.2578 5.93375 45.2578 4.19005 45.2318 3.64353C45.2057 3.27917 45.0236 2.91483 44.7113 2.70663C43.9565 2.21215 41.0157 0.702683 40.2089 0.312305C39.7925 0.104104 39.3241 0 38.8556 0H0.780755C0.364353 0 0.0260252 0.338334 0 0.754737V16.7082C0.0260252 17.1246 0.364353 17.4629 0.780755 17.4629H38.8296C39.4021 17.4629 39.9747 17.3328 40.5212 17.0985C41.5362 16.6561 44.0086 15.3549 44.9455 14.7563C45.2318 14.5741 45.44 14.2358 45.466 13.8975C45.518 13.5071 45.492 10.6703 45.466 10.2799C45.44 9.9156 45.2318 9.6033 44.8934 9.42112L43.2799 8.53626C43.0977 8.45818 43.0977 8.24998 43.2539 8.14588ZM32.9219 6.6104C32.7917 6.66245 32.6616 6.68848 32.5315 6.68848H15.2247C15.0165 6.68848 14.8344 6.84463 14.8344 7.05283V9.55125C14.8344 9.75945 15.0165 9.94162 15.2247 9.94162H32.8438C33.2081 9.94162 33.3122 9.99368 33.5204 10.1238C33.6766 10.2019 34.1711 10.5402 34.3012 10.6443C34.3793 10.6964 34.4053 10.8004 34.4313 10.8785C34.4573 11.0867 34.4573 12.414 34.4313 12.6482C34.4053 12.8044 34.3272 12.9345 34.1971 13.0126C33.7547 13.2728 33.2342 13.5071 32.7657 13.6893C32.6356 13.7413 32.5055 13.7673 32.3493 13.7673H11.1648C10.9566 13.7673 10.7744 13.5852 10.7744 13.377V4.11198C10.7744 3.90377 10.9566 3.7216 11.1648 3.7216H32.8958C33.078 3.7216 33.2342 3.77365 33.3903 3.85172C33.7286 4.05993 34.0409 4.26813 34.3272 4.47634C34.4053 4.52839 34.4573 4.63249 34.4573 4.73659C34.4573 4.91876 34.4834 5.54337 34.4573 5.69952C34.4573 5.7776 34.4053 5.85567 34.3272 5.90772C34.067 6.11592 33.2342 6.48028 32.9219 6.6104Z" fill="white"/>
<path d="M87.1885 11.8154L94.1632 10.1759C94.6577 10.0457 95.0221 9.62932 95.0741 9.10882C95.1262 8.30203 95.1001 4.47634 95.0741 3.66956C95.0481 3.25316 94.8399 2.86278 94.5016 2.62855C93.6427 2.056 91.0402 0.70269 90.1033 0.286287C89.6609 0.0780851 89.1924 0 88.6979 0H58.2485C57.702 0 57.1554 0.130132 56.6609 0.364359C55.8021 0.780762 53.1215 2.21215 52.3928 2.62855C52.0024 2.86278 51.7422 3.3052 51.7422 3.77365V16.7082C51.7422 17.1246 52.0805 17.4629 52.4969 17.4629L62.2564 17.4369C62.6728 17.4369 63.0111 17.0986 63.0111 16.6822V5.28311C63.0111 5.07491 63.1152 4.89273 63.2713 4.76261C63.5576 4.5544 64.3904 4.08596 64.6767 3.95583C64.989 3.79968 65.3013 3.7216 65.6396 3.7216H81.489C81.5931 3.7216 81.6972 3.74764 81.8013 3.79969C82.0355 3.90379 83.0505 4.45031 83.2587 4.60646C83.3628 4.68454 83.4148 4.78864 83.4409 4.91877C83.4669 5.25709 83.4669 6.8186 83.4409 7.15693C83.4148 7.28705 83.3628 7.41718 83.2587 7.52128C82.9203 7.80756 81.8794 8.43216 81.4629 8.64036C81.2287 8.74446 80.9945 8.82254 80.7342 8.82254H67.4354C67.2272 8.82254 67.045 8.97869 67.045 9.21292V11.6593C67.045 11.8675 67.2272 12.0497 67.4354 12.0497H72.8226C73.1349 12.0497 73.4472 12.1277 73.7074 12.2839L82.4259 17.0465C82.9984 17.3588 83.623 17.5149 84.2476 17.5149H97.6246C97.8588 17.5149 97.9369 17.1766 97.7287 17.0725L87.1625 12.2839C86.9543 12.1538 86.9803 11.8675 87.1885 11.8154Z" fill="white"/>
<path d="M110.315 0H143.732C143.914 0 144.07 0.130129 144.096 0.312305C144.122 0.494482 144.122 3.38328 144.096 3.53943C144.07 3.72161 143.914 3.87776 143.732 3.87776H118.67C118.461 3.87776 118.253 3.92981 118.045 4.00788C117.915 4.05994 116.457 4.84069 116.353 4.91877C116.249 4.99684 116.197 5.10095 116.171 5.23107C116.171 5.3612 116.145 6.6104 116.171 6.74053C116.197 6.84463 116.275 6.92271 116.405 6.92271H142.821C143.003 6.92271 143.159 7.05282 143.185 7.235C143.211 7.39115 143.211 9.83752 143.185 10.0197C143.159 10.2019 143.003 10.332 142.821 10.332H116.431C116.327 10.332 116.223 10.4101 116.197 10.5142C116.171 10.6443 116.171 12.0497 116.197 12.1538C116.223 12.2579 116.275 12.362 116.353 12.44C116.562 12.6222 117.915 13.2989 118.149 13.403C118.331 13.481 118.539 13.5331 118.748 13.5331H144.382C144.565 13.5331 144.721 13.6632 144.747 13.8454C144.773 14.0796 144.773 16.8643 144.747 17.0985C144.721 17.2807 144.565 17.4109 144.382 17.4109H110.472C110.003 17.4109 109.561 17.3067 109.144 17.1246C108.207 16.6821 105.605 15.3288 104.746 14.7823C104.356 14.522 104.095 14.0796 104.095 13.6112V3.82571C104.095 3.33123 104.356 2.88881 104.746 2.62855C105.579 2.10805 108.338 0.650636 109.222 0.234233C109.561 0.0780819 109.925 0 110.315 0Z" fill="white"/>
<path d="M151.064 11.0867C151.064 10.5923 151.377 10.1759 151.819 10.0457L152.235 9.9156L169.464 4.71057C169.594 4.65852 169.698 4.55441 169.698 4.39826V4.00788C169.698 3.87776 169.594 3.77365 169.464 3.77365H155.853C155.332 3.77365 154.838 3.64354 154.369 3.40931L152.105 2.21214C151.871 2.08201 151.715 1.84779 151.715 1.56151V0.390378C151.715 0.182176 151.897 0 152.105 0H189.816C190.024 0 190.206 0.0780724 190.362 0.208198C190.57 0.4164 190.597 0.702686 190.597 0.754737C190.623 1.71767 190.623 2.73265 190.623 3.74763C190.623 4.58044 190.623 5.38721 190.597 6.19399C190.597 6.37617 190.597 6.6104 190.544 6.76655C190.466 7.0268 190.284 7.26103 190.024 7.39116C189.92 7.44321 189.764 7.49525 189.556 7.5473L171.962 12.8825C171.832 12.9345 171.728 13.0386 171.728 13.1948V13.5071C171.728 13.6372 171.832 13.7413 171.962 13.7413H188.514C189.009 13.7413 189.477 13.8714 189.92 14.1057L192.236 15.3288C192.47 15.459 192.6 15.6932 192.6 15.9534V17.1246C192.6 17.3328 192.418 17.5149 192.21 17.5149H151.819C151.611 17.5149 151.429 17.4369 151.272 17.2807C151.064 17.0725 151.038 16.7862 151.038 16.7342C151.012 15.7452 151.012 14.8344 151.012 13.8194C151.012 12.8044 151.012 12.1017 151.038 11.373L151.064 11.0867Z" fill="white"/>
<path d="M198.899 11.0867C198.899 10.5923 199.211 10.1759 199.653 10.0457L200.07 9.9156L217.299 4.71057C217.429 4.65852 217.533 4.55441 217.533 4.39826V4.00788C217.533 3.87776 217.429 3.77365 217.299 3.77365H203.687C203.167 3.77365 202.672 3.64354 202.204 3.40931L199.94 2.21214C199.706 2.08201 199.549 1.84779 199.549 1.56151V0.390378C199.549 0.182176 199.732 0 199.94 0H237.65C237.858 0 238.041 0.0780724 238.197 0.208198C238.405 0.4164 238.431 0.702686 238.431 0.754737C238.457 1.71767 238.457 2.73265 238.457 3.74763C238.457 4.58044 238.457 5.38721 238.431 6.19399C238.431 6.37617 238.431 6.6104 238.379 6.76655C238.301 7.0268 238.119 7.26103 237.858 7.39116C237.754 7.44321 237.598 7.49525 237.39 7.5473L219.797 12.8825C219.667 12.9345 219.563 13.0386 219.563 13.1948V13.5071C219.563 13.6372 219.667 13.7413 219.797 13.7413H236.349C236.843 13.7413 237.312 13.8714 237.754 14.1057L240.071 15.3288C240.305 15.459 240.435 15.6932 240.435 15.9534V17.1246C240.435 17.3328 240.253 17.5149 240.045 17.5149H199.68C199.471 17.5149 199.289 17.4369 199.133 17.2807C198.925 17.0725 198.899 16.7862 198.899 16.7342C198.873 15.7452 198.847 14.8344 198.847 13.8194C198.847 12.8044 198.847 12.1017 198.873 11.373L198.899 11.0867Z" fill="white"/>
<path d="M284.232 0.312305C283.79 0.104104 283.321 0 282.827 0H268.461C268.097 0 267.706 0.052044 267.342 0.156145C266.379 0.416397 264.713 0.988951 263.855 1.32728C263.412 1.48343 263.022 1.74368 262.684 2.05598L246.756 17.0985C246.6 17.2287 246.704 17.4889 246.912 17.4889H258.389C258.806 17.4889 259.222 17.3328 259.534 17.0465L272.859 4.4503C273.042 4.29415 273.25 4.19005 273.484 4.16403C273.666 4.138 276.217 4.138 276.425 4.16403C276.633 4.19005 276.841 4.29416 276.945 4.47634L280.068 9.62932C280.172 9.78547 280.042 9.96764 279.886 9.96764H272.703C272.313 9.96764 271.948 10.0978 271.636 10.358C271.48 10.4881 268.565 13.1948 268.435 13.3769C268.331 13.5331 268.435 13.7413 268.643 13.7413H282.228C282.437 13.7413 282.645 13.8454 282.749 14.0276L284.493 16.9164C284.701 17.2547 285.091 17.4889 285.482 17.4889H296.777C296.959 17.4889 297.063 17.2807 296.959 17.1506L288.37 2.9929C288.136 2.62854 287.85 2.31624 287.486 2.08201C286.679 1.56151 285.143 0.728708 284.232 0.312305Z" fill="white"/>
</svg>
